<?xml version="1.0" encoding="utf-8"?>
<!-- Generator: Adobe Illustrator 22.1.0, SVG Export Plug-In . SVG Version: 6.00 Build 0)  -->
<svg version="1.1" xmlns="http://www.w3.org/2000/svg" xmlns:xlink="http://www.w3.org/1999/xlink" x="0px" y="0px"
	 viewBox="0 0 630 97.2" style="enable-background:new 0 0 630 97.2;" xml:space="preserve">
<style type="text/css">
	.st0{display:none;}
	.st1{display:inline;fill:#003660;}
	.st2{fill:#FFFFFF;}
	.st3{fill:#15385F;}
	.st4{fill:#003764;}
	.st5{fill:#003660;}
</style>
<g id="Layer_2" class="st0">
</g>
<g id="Template">
	<g>
		<g>
			<path class="st3" d="M5.799,77.975H9.58V53.652H5.799v-2.856h22.307v7.015h-3.403v-4.158H13.234v10.334h9.199v-2.688h3.025v8.359
				h-3.025v-2.688h-9.199v11.006h12.309v-4.831h3.402v7.688H5.799V77.975z"/>
			<path class="st3" d="M32.049,80.831v-2.73h3.066V61.718h-3.15v-2.856h6.637v3.696c1.008-2.059,3.402-4.074,6.889-4.074
				c4.411,0,7.646,2.353,7.646,8.695v10.922h3.066v2.73h-9.704v-2.73h3.15V66.927c0-3.697-1.681-5.419-5.083-5.419
				c-3.108,0-5.965,2.059-5.965,5.923v10.67h3.15v2.73H32.049z"/>
			<path class="st3" d="M60.146,75.328V61.802h-3.15v-2.94h3.15v-4.999h3.487v4.999h5.671v2.94h-5.671v13.19
				c0,2.101,0.966,3.192,3.15,3.192c0.882,0,1.849-0.168,2.856-0.504v2.94c-0.966,0.294-1.891,0.504-3.15,0.504
				C62.08,81.125,60.146,78.772,60.146,75.328z"/>
			<path class="st3" d="M71.738,70.077v-0.336c0-6.638,4.242-11.258,10.292-11.258c5.083,0,9.872,3.066,9.872,10.922v1.134H75.351
				c0.168,4.999,2.562,7.771,7.057,7.771c3.402,0,5.377-1.26,5.839-3.822h3.487c-0.756,4.41-4.411,6.721-9.368,6.721
				C76.148,81.209,71.738,76.841,71.738,70.077z M88.332,67.725c-0.337-4.537-2.689-6.343-6.302-6.343
				c-3.571,0-5.966,2.437-6.554,6.343H88.332z"/>
			<path class="st3" d="M94.376,80.831v-2.73h3.066V61.718h-3.15v-2.856h6.638v4.2c1.05-2.31,3.275-4.536,7.896-4.578v3.444
				c-4.789-0.042-7.896,1.471-7.896,6.848v9.325h3.359v2.73H94.376z"/>
			<path class="st3" d="M111.344,88.477v-2.73h3.066V61.718h-3.15v-2.856h6.637v3.864c1.26-2.311,4.242-4.242,7.436-4.242
				c5.755,0,9.998,4.2,9.998,11.048v0.336c0,6.721-3.949,11.342-9.998,11.342c-3.613,0-6.176-1.807-7.436-4.074v8.611h3.444v2.73
				H111.344z M131.717,70.035v-0.336c0-5.545-3.066-8.317-6.764-8.317c-4.074,0-7.183,2.73-7.183,8.317v0.336
				c0,5.545,2.982,8.275,7.226,8.275C129.364,78.311,131.717,75.37,131.717,70.035z"/>
			<path class="st3" d="M137.845,80.831v-2.73h3.066V61.718h-3.15v-2.856h6.638v4.2c1.05-2.31,3.275-4.536,7.896-4.578v3.444
				c-4.789-0.042-7.896,1.471-7.896,6.848v9.325h3.359v2.73H137.845z"/>
			<path class="st3" d="M154.812,80.831v-2.73h3.066V61.718h-3.15v-2.856h6.637v19.239h3.15v2.73H154.812z M157.039,51.93
				c0-1.344,1.092-2.353,2.395-2.353c1.302,0,2.395,1.009,2.395,2.353c0,1.345-1.093,2.395-2.395,2.395
				C158.131,54.324,157.039,53.274,157.039,51.93z"/>
			<path class="st3" d="M169.723,78.143v2.688h-2.941v-7.31h2.857c0.504,2.562,2.479,4.915,5.881,4.915
				c3.024,0,4.494-1.26,4.494-3.612c0-2.311-1.764-3.108-5.166-3.739c-5.713-1.05-7.646-3.066-7.646-6.721
				c0-3.697,3.15-5.881,6.931-5.881c3.193,0,4.747,1.134,5.504,2.688v-2.311h2.939v6.343h-2.855
				c-0.504-2.437-2.438-3.948-5.252-3.948c-2.479,0-4.032,0.966-4.032,3.024c0,1.933,1.093,2.898,5.125,3.696
				c4.495,0.883,7.771,2.017,7.771,6.638c0,3.906-2.688,6.595-7.897,6.595C172.033,81.209,170.31,79.487,169.723,78.143z"/>
			<path class="st3" d="M186.06,70.077v-0.336c0-6.638,4.242-11.258,10.291-11.258c5.084,0,9.872,3.066,9.872,10.922v1.134h-16.551
				c0.168,4.999,2.562,7.771,7.058,7.771c3.402,0,5.377-1.26,5.838-3.822h3.487c-0.757,4.41-4.411,6.721-9.368,6.721
				C190.471,81.209,186.06,76.841,186.06,70.077z M202.653,67.725c-0.337-4.537-2.688-6.343-6.302-6.343
				c-3.57,0-5.965,2.437-6.553,6.343H202.653z"/>
			<path class="st3" d="M224.742,80.831v-2.856h4.117V53.778h-7.604v4.579h-3.318v-7.562h25.498v7.562h-3.318v-4.579h-7.604v24.196
				h4.117v2.856H224.742z"/>
			<path class="st3" d="M243.851,70.077v-0.336c0-6.638,4.242-11.258,10.292-11.258c5.083,0,9.872,3.066,9.872,10.922v1.134h-16.551
				c0.168,4.999,2.562,7.771,7.057,7.771c3.402,0,5.377-1.26,5.839-3.822h3.487c-0.756,4.41-4.411,6.721-9.368,6.721
				C248.262,81.209,243.851,76.841,243.851,70.077z M260.445,67.725c-0.337-4.537-2.689-6.343-6.302-6.343
				c-3.571,0-5.966,2.437-6.554,6.343H260.445z"/>
			<path class="st3" d="M283.838,58.861h3.066v7.436h-2.982c-0.756-2.94-2.771-4.915-6.511-4.915c-3.991,0-7.058,3.192-7.058,8.359
				v0.336c0,5.377,2.941,8.233,7.184,8.233c3.109,0,5.924-1.807,6.301-5.377h3.234c-0.461,4.747-4.284,8.275-9.577,8.275
				c-6.133,0-10.754-4.326-10.754-11.132v-0.336c0-6.722,4.789-11.258,10.67-11.258c3.696,0,5.545,1.47,6.427,3.234V58.861z"/>
			<path class="st3" d="M289.799,80.831v-2.73h3.066V51.216h-3.15v-2.856h6.638v14.198c1.009-2.059,3.402-4.074,6.89-4.074
				c4.41,0,7.645,2.353,7.645,8.695v10.922h3.066v2.73h-9.703v-2.73h3.15V66.927c0-3.697-1.68-5.419-5.083-5.419
				c-3.108,0-5.965,2.059-5.965,5.923v10.67h3.15v2.73H289.799z"/>
			<path class="st3" d="M315.797,80.831v-2.73h3.066V61.718h-3.15v-2.856h6.638v3.696c1.009-2.059,3.402-4.074,6.89-4.074
				c4.41,0,7.645,2.353,7.645,8.695v10.922h3.066v2.73h-9.703v-2.73h3.15V66.927c0-3.697-1.68-5.419-5.083-5.419
				c-3.108,0-5.965,2.059-5.965,5.923v10.67h3.15v2.73H315.797z"/>
			<path class="st3" d="M341.838,70.035v-0.336c0-6.596,4.579-11.216,10.796-11.216c6.218,0,10.796,4.578,10.796,11.174v0.336
				c0,6.637-4.578,11.216-10.838,11.216C346.333,81.209,341.838,76.462,341.838,70.035z M359.817,70.035v-0.294
				c0-5.083-2.815-8.359-7.184-8.359c-4.411,0-7.183,3.276-7.183,8.317v0.336c0,4.999,2.73,8.275,7.183,8.275
				C357.045,78.311,359.817,74.992,359.817,70.035z"/>
			<path class="st3" d="M365.736,80.831v-2.73h3.066V51.216h-3.15v-2.856h6.679v29.741h3.066v2.73H365.736z"/>
			<path class="st3" d="M377.286,70.035v-0.336c0-6.596,4.579-11.216,10.796-11.216s10.796,4.578,10.796,11.174v0.336
				c0,6.637-4.579,11.216-10.838,11.216S377.286,76.462,377.286,70.035z M395.266,70.035v-0.294c0-5.083-2.814-8.359-7.184-8.359
				c-4.41,0-7.184,3.276-7.184,8.317v0.336c0,4.999,2.73,8.275,7.184,8.275C392.492,78.311,395.266,74.992,395.266,70.035z"/>
			<path class="st3" d="M402.108,82.091h3.57c0.505,2.521,2.604,3.823,6.343,3.823c4.327,0,7.058-2.059,7.058-6.764v-3.192
				c-1.261,2.143-4.243,4.159-7.435,4.159c-5.756,0-9.998-4.369-9.998-10.418v-0.294c0-5.965,4.2-10.922,10.25-10.922
				c3.654,0,5.922,1.764,7.183,3.906v-3.528h6.47v2.856h-2.982V79.36c-0.043,6.386-4.369,9.494-10.502,9.494
				C405.553,88.854,402.696,85.788,402.108,82.091z M419.205,69.447v-0.294c0-4.915-2.688-7.771-6.973-7.771
				c-4.369,0-6.974,3.234-6.974,7.855v0.336c0,4.789,3.066,7.646,6.763,7.646C416.097,77.219,419.205,74.362,419.205,69.447z"/>
			<path class="st3" d="M446.967,61.718l-11.048,26.759h-5.587v-2.73h3.361l3.023-7.184l-7.351-16.845h-2.772v-2.856h9.662v2.856
				h-3.193l5.503,12.896l4.999-12.896h-3.318v-2.856h9.41v2.856H446.967z"/>
			<path class="st3" d="M464.435,77.429v3.402h-3.107v-9.199h3.107c0.715,3.78,3.403,6.721,8.023,6.721
				c3.697,0,6.47-2.269,6.47-5.503c0-3.402-1.554-5.209-6.974-6.091c-6.007-0.967-10.166-3.192-10.166-8.401
				c0-4.789,3.697-7.939,9.158-7.939c4.158,0,6.133,1.512,7.1,3.276v-2.898h3.066v7.939h-2.982
				c-0.756-3.276-3.234-5.461-7.058-5.461c-3.655,0-5.881,1.806-5.881,4.705c0,2.772,1.554,4.536,7.351,5.545
				c6.386,1.092,9.914,3.276,9.914,9.031c0,5.125-4.201,8.653-10.039,8.653C468.637,81.209,465.738,79.865,464.435,77.429z"/>
			<path class="st3" d="M485.644,70.077v-0.336c0-6.638,4.242-11.258,10.292-11.258c5.083,0,9.872,3.066,9.872,10.922v1.134h-16.551
				c0.168,4.999,2.562,7.771,7.057,7.771c3.402,0,5.377-1.26,5.839-3.822h3.487c-0.756,4.41-4.411,6.721-9.368,6.721
				C490.055,81.209,485.644,76.841,485.644,70.077z M502.238,67.725c-0.337-4.537-2.689-6.343-6.302-6.343
				c-3.571,0-5.966,2.437-6.554,6.343H502.238z"/>
			<path class="st3" d="M508.282,80.831v-2.73h3.066V61.718h-3.15v-2.856h6.638v4.2c1.05-2.31,3.275-4.536,7.896-4.578v3.444
				c-4.789-0.042-7.896,1.471-7.896,6.848v9.325h3.359v2.73H508.282z"/>
			<path class="st3" d="M545.539,61.718l-6.848,19.113h-4.242l-7.141-19.113h-2.73v-2.856h9.619v2.856h-3.109l5.672,15.837
				l5.377-15.837h-3.15v-2.856h9.241v2.856H545.539z"/>
			<path class="st3" d="M549.818,80.831v-2.73h3.066V61.718h-3.15v-2.856h6.638v19.239h3.15v2.73H549.818z M552.045,51.93
				c0-1.344,1.092-2.353,2.395-2.353s2.395,1.009,2.395,2.353c0,1.345-1.092,2.395-2.395,2.395S552.045,53.274,552.045,51.93z"/>
			<path class="st3" d="M578.717,58.861h3.066v7.436h-2.982c-0.756-2.94-2.771-4.915-6.511-4.915c-3.991,0-7.058,3.192-7.058,8.359
				v0.336c0,5.377,2.941,8.233,7.184,8.233c3.109,0,5.924-1.807,6.301-5.377h3.234c-0.461,4.747-4.284,8.275-9.577,8.275
				c-6.133,0-10.754-4.326-10.754-11.132v-0.336c0-6.722,4.789-11.258,10.67-11.258c3.696,0,5.545,1.47,6.427,3.234V58.861z"/>
			<path class="st3" d="M584.931,70.077v-0.336c0-6.638,4.243-11.258,10.292-11.258c5.083,0,9.871,3.066,9.871,10.922v1.134h-16.551
				c0.168,4.999,2.562,7.771,7.058,7.771c3.403,0,5.377-1.26,5.839-3.822h3.486c-0.756,4.41-4.41,6.721-9.367,6.721
				C589.342,81.209,584.931,76.841,584.931,70.077z M601.523,67.725c-0.336-4.537-2.688-6.343-6.301-6.343
				c-3.57,0-5.965,2.437-6.553,6.343H601.523z"/>
			<path class="st3" d="M610.719,78.143v2.688h-2.939v-7.31h2.855c0.505,2.562,2.479,4.915,5.882,4.915
				c3.024,0,4.495-1.26,4.495-3.612c0-2.311-1.765-3.108-5.168-3.739c-5.713-1.05-7.645-3.066-7.645-6.721
				c0-3.697,3.15-5.881,6.932-5.881c3.191,0,4.746,1.134,5.502,2.688v-2.311h2.941v6.343h-2.857
				c-0.504-2.437-2.436-3.948-5.25-3.948c-2.479,0-4.033,0.966-4.033,3.024c0,1.933,1.092,2.898,5.125,3.696
				c4.494,0.883,7.771,2.017,7.771,6.638c0,3.906-2.688,6.595-7.897,6.595C613.029,81.209,611.307,79.487,610.719,78.143z"/>
		</g>
		<g>
			<path class="st3" d="M244.238,8.853h3.638l8.686,19.967h-4.964l-1.72-4.23h-7.756l-1.664,4.23h-4.851L244.238,8.853z
				 M245.93,14.663l-2.425,6.204h4.879L245.93,14.663z"/>
			<path class="st3" d="M218.883,8.853h7.446c0.865,0,1.735,0.061,2.609,0.183c0.874,0.123,1.659,0.367,2.355,0.733
				c0.695,0.367,1.26,0.88,1.692,1.538c0.432,0.658,0.649,1.533,0.649,2.622c0,1.128-0.315,2.064-0.945,2.806
				c-0.63,0.743-1.462,1.274-2.496,1.594v0.057c0.658,0.094,1.255,0.278,1.791,0.55c0.536,0.273,0.996,0.621,1.382,1.043
				c0.385,0.423,0.681,0.917,0.888,1.481c0.207,0.564,0.31,1.166,0.31,1.805c0,1.053-0.226,1.932-0.677,2.637
				c-0.451,0.705-1.034,1.274-1.749,1.706s-1.518,0.743-2.411,0.931c-0.893,0.188-1.782,0.282-2.665,0.282h-8.179V8.853z
				 M223.283,16.835h3.187c0.339,0,0.672-0.038,1.001-0.113c0.329-0.075,0.625-0.197,0.888-0.367
				c0.263-0.169,0.475-0.395,0.635-0.677c0.16-0.282,0.24-0.621,0.24-1.015c0-0.413-0.089-0.756-0.268-1.03
				c-0.179-0.272-0.409-0.484-0.691-0.634c-0.282-0.15-0.602-0.258-0.959-0.324c-0.358-0.066-0.705-0.099-1.044-0.099h-2.989V16.835
				z M223.283,25.098h3.948c0.338,0,0.681-0.038,1.029-0.113c0.348-0.075,0.663-0.207,0.945-0.395
				c0.282-0.188,0.512-0.432,0.691-0.733c0.178-0.301,0.268-0.667,0.268-1.1c0-0.47-0.118-0.85-0.353-1.142
				c-0.235-0.291-0.532-0.512-0.888-0.663c-0.358-0.15-0.743-0.253-1.157-0.31c-0.414-0.057-0.799-0.085-1.156-0.085h-3.328V25.098z
				"/>
			<path class="st3" d="M258.658,8.853h7.728c1.015,0,1.979,0.098,2.891,0.296c0.912,0.197,1.711,0.527,2.397,0.987
				c0.686,0.461,1.231,1.082,1.636,1.862c0.404,0.78,0.606,1.753,0.606,2.919c0,1.41-0.367,2.609-1.1,3.595
				c-0.733,0.987-1.805,1.613-3.215,1.876l5.077,8.433h-5.274l-4.174-7.981h-2.172v7.981h-4.4V8.853z M263.058,17.116h2.595
				c0.395,0,0.813-0.014,1.255-0.042c0.441-0.029,0.841-0.113,1.199-0.254c0.357-0.141,0.653-0.362,0.888-0.663
				c0.235-0.301,0.353-0.723,0.353-1.269c0-0.507-0.104-0.911-0.31-1.213c-0.207-0.3-0.47-0.531-0.79-0.691
				c-0.32-0.159-0.687-0.268-1.1-0.324c-0.414-0.056-0.818-0.085-1.213-0.085h-2.877V17.116z"/>
			<path class="st3" d="M184.81,8.854h3.638l8.686,19.967h-4.964l-1.72-4.23h-7.756l-1.664,4.23h-4.851L184.81,8.854z
				 M186.502,14.663l-2.425,6.204h4.879L186.502,14.663z"/>
			<path class="st3" d="M284.909,8.853h3.638l8.686,19.967h-4.964l-1.72-4.23h-7.756l-1.664,4.23h-4.851L284.909,8.853z
				 M286.601,14.663l-2.425,6.204h4.879L286.601,14.663z"/>
			<path class="st3" d="M159.455,8.85h7.446c0.865,0,1.735,0.061,2.609,0.183c0.874,0.123,1.659,0.367,2.355,0.733
				c0.695,0.367,1.26,0.88,1.692,1.538c0.432,0.658,0.649,1.533,0.649,2.622c0,1.128-0.315,2.064-0.945,2.806
				c-0.63,0.743-1.462,1.274-2.496,1.594v0.057c0.658,0.094,1.255,0.278,1.791,0.55c0.536,0.273,0.996,0.621,1.382,1.043
				c0.385,0.423,0.681,0.917,0.888,1.481c0.207,0.564,0.31,1.166,0.31,1.805c0,1.053-0.226,1.932-0.677,2.637
				c-0.451,0.705-1.034,1.274-1.749,1.706c-0.715,0.433-1.518,0.743-2.411,0.931c-0.893,0.188-1.782,0.282-2.665,0.282h-8.179V8.85z
				 M163.855,16.831h3.187c0.339,0,0.672-0.038,1.001-0.113c0.329-0.075,0.625-0.197,0.888-0.367
				c0.263-0.169,0.475-0.395,0.635-0.677c0.16-0.282,0.24-0.621,0.24-1.015c0-0.413-0.089-0.756-0.268-1.03
				c-0.179-0.272-0.409-0.484-0.691-0.634c-0.282-0.15-0.602-0.258-0.959-0.324c-0.358-0.066-0.705-0.099-1.044-0.099h-2.989V16.831
				z M163.855,25.095h3.948c0.338,0,0.681-0.038,1.029-0.113c0.348-0.075,0.663-0.207,0.945-0.395
				c0.282-0.188,0.512-0.432,0.691-0.733c0.178-0.301,0.268-0.667,0.268-1.1c0-0.47-0.118-0.85-0.353-1.142
				c-0.235-0.291-0.532-0.512-0.888-0.663c-0.358-0.15-0.743-0.253-1.157-0.31c-0.414-0.057-0.799-0.085-1.156-0.085h-3.328V25.095z
				"/>
			<path class="st3" d="M199.23,8.85h7.728c1.015,0,1.979,0.098,2.891,0.296c0.912,0.197,1.711,0.527,2.397,0.987
				c0.686,0.461,1.231,1.082,1.636,1.862c0.404,0.78,0.606,1.753,0.606,2.919c0,1.41-0.367,2.609-1.1,3.595
				c-0.733,0.987-1.805,1.613-3.215,1.876l5.077,8.433h-5.274l-4.174-7.981h-2.172v7.981h-4.4V8.85z M203.629,17.113h2.595
				c0.395,0,0.813-0.014,1.255-0.042c0.441-0.029,0.841-0.113,1.199-0.254c0.357-0.141,0.653-0.362,0.888-0.663
				c0.235-0.301,0.353-0.723,0.353-1.269c0-0.507-0.104-0.911-0.31-1.213c-0.207-0.3-0.47-0.531-0.79-0.691
				c-0.32-0.159-0.687-0.268-1.1-0.324c-0.414-0.056-0.818-0.085-1.213-0.085h-2.876V17.113z"/>
			<path class="st3" d="M79.456,8.854h3.638l8.686,19.967h-4.964l-1.72-4.23h-7.756l-1.664,4.23h-4.851L79.456,8.854z
				 M81.148,14.663l-2.425,6.204h4.879L81.148,14.663z"/>
			<path class="st3" d="M138.733,8.854h3.638l8.686,19.967h-4.964l-1.72-4.23h-7.756l-1.664,4.23h-4.851L138.733,8.854z
				 M140.425,14.663L138,20.867h4.879L140.425,14.663z"/>
			<path class="st3" d="M94.218,8.85h5.979l8.489,13.876h0.056V8.85h4.4v19.967h-5.753l-8.715-14.214h-0.056v14.214h-4.4V8.85z"/>
			<path class="st3" d="M121.724,12.742h-5.511V8.85h15.794v3.892h-5.883v16.075h-4.4V12.742z"/>
			<path class="st3" d="M15.575,29.132c-4.638,0-7.268-2.715-7.268-7.635l0.006-10.72H6.051V8.853h7.268v1.923h-2.545l-0.006,10.438
				c0,4.242,1.499,5.882,4.864,5.882c3.224,0,5.147-1.301,5.147-6.25l0.006-10.07h-2.545V8.853h7.268v1.923h-2.262l-0.006,10.409
				C23.239,26.107,20.779,29.132,15.575,29.132z"/>
			<path class="st3" d="M43.022,22.176c-0.509,3.28-2.799,4.949-6.108,4.949c-4.355,0-6.957-3.111-6.957-8.258v-0.226
				c0-5.09,2.799-8.342,6.985-8.342c3.083,0,5.176,1.301,5.995,4.666h2.065l0-6.111h-2.206l0,2.209
				c-1.046-1.867-3.252-2.715-5.797-2.715c-5.571,0-9.587,4.327-9.587,10.322v0.226c0,6.221,3.591,10.237,9.445,10.237
				c4.448,0,7.632-2.218,8.411-6.725L43.022,22.176z"/>
			<path class="st3" d="M69.644,22.677c0,3.801-3.216,6.456-7.82,6.456c-3.689,0-6.335-1.24-7.866-3.687l3.017-2.582
				c0.489,0.697,2.169,2.719,5.22,2.719c1.908,0,3.092-0.829,3.092-2.163c0-1.686-1.1-2.061-3.884-2.842
				c-3.285-0.921-6.626-2.34-6.626-5.994c0-3.673,3.102-6.239,7.542-6.239c1.783,0,5.032,0.416,6.812,3.191l-2.804,2.441
				c-1.063-1.402-2.538-2.083-4.503-2.083c-1.974,0-2.69,1.368-2.69,2.287c0,1.456,1.942,2.092,4.289,2.718
				C66.432,17.688,69.644,18.849,69.644,22.677z"/>
		</g>
	</g>
</g>
</svg>
